<svg width="43" height="50" viewBox="0 0 43 50" fill="none" xmlns="http://www.w3.org/2000/svg">
<path d="M33.2088 16.4031C32.6552 16.4031 32.1754 16.0338 31.9812 15.5153C31.6931 14.746 31.3354 14.0464 30.9079 13.4165C30.3214 12.5367 29.6037 11.7959 28.7548 11.1939C27.9213 10.5765 26.9643 10.1058 25.8839 9.78163C24.8189 9.4575 23.6382 9.29544 22.3417 9.29544C19.9184 9.29544 17.7884 9.89739 15.9517 11.1013C14.1304 12.3052 12.7104 14.057 11.6918 16.3568C10.6731 18.6411 10.1637 21.4348 10.1637 24.7378C10.1637 28.0408 10.6653 30.8499 11.6686 33.1651C12.6719 35.4803 14.0918 37.2476 15.9286 38.4669C17.7653 39.6708 19.9339 40.2728 22.4343 40.2728C24.7032 40.2728 26.6402 39.8715 28.2454 39.0689C29.8661 38.2509 31.1008 37.101 31.9497 35.6192C32.791 34.1771 33.2228 32.4792 33.2453 30.5254C33.2463 30.4403 33.3219 30.3749 33.4061 30.3873C33.577 30.4126 33.5584 30.6647 33.3857 30.6647H23.896C23.4339 30.6647 23.0594 30.2902 23.0594 29.8281V24.359C23.0594 23.6732 23.6154 23.1172 24.3012 23.1172H41.6588C42.3446 23.1172 42.9006 23.6732 42.9006 24.359V29.0904C42.9006 33.2577 42.0209 36.8386 40.2613 39.8329C38.5018 42.8118 36.0785 45.1116 32.9916 46.7322C29.9046 48.3374 26.3701 49.14 22.388 49.14C17.9428 49.14 14.0378 48.1599 10.6731 46.1997C7.30831 44.2241 4.68442 41.4227 2.80139 37.7955C0.933797 34.153 0 29.8312 0 24.8304C0 20.9872 0.555648 17.5607 1.66694 14.5509C2.79367 11.5257 4.36801 8.9636 6.38995 6.86449C8.41189 4.76537 10.7657 3.16788 13.4513 2.07202C16.1369 0.976161 19.0464 0.428223 22.1796 0.428223C24.8652 0.428223 27.3656 0.82181 29.6808 1.60898C31.996 2.38071 34.0489 3.47657 35.8393 4.89656C37.6451 6.31655 39.1191 8.00664 40.2613 9.96684C41.1717 11.517 41.8223 13.1947 42.2129 14.9999C42.3723 15.7362 41.789 16.4031 41.0355 16.4031H33.2088Z" fill="#BD3ED2"/>
</svg>
