<svg width="436" height="69" viewBox="0 0 436 69" fill="none" xmlns="http://www.w3.org/2000/svg">
<path d="M356.092 61.7249C356.092 60.2861 356.593 59.0976 357.594 58.1592C358.595 57.1583 359.783 56.6579 361.159 56.6579C362.536 56.6579 363.693 57.1583 364.631 58.1592C365.632 59.0976 366.133 60.2861 366.133 61.7249C366.133 63.0386 365.632 64.1959 364.631 65.1968C363.693 66.1977 362.536 66.6982 361.159 66.6982C359.783 66.6982 358.595 66.1977 357.594 65.1968C356.593 64.1959 356.092 63.0386 356.092 61.7249Z" fill="black"/>
<path d="M381.89 42.6765C381.953 48.6819 383.298 53.3736 385.925 56.7517C388.553 60.1297 392.244 61.8188 396.998 61.8188C399.375 61.8188 401.408 61.3496 403.097 60.4112C404.849 59.4103 406.287 58.0654 407.413 56.3763C408.539 54.6248 409.384 52.5917 409.947 50.2771C410.51 47.9625 410.792 45.4602 410.792 42.7703C410.792 40.0804 410.479 37.5468 409.853 35.1697C409.228 32.73 408.321 30.6343 407.132 28.8828C405.943 27.0686 404.473 25.6298 402.722 24.5664C401.033 23.5029 399.062 22.9712 396.81 22.9712C394.245 22.9712 392.025 23.4403 390.148 24.3787C388.334 25.2545 386.801 26.5682 385.55 28.3197C384.299 30.0713 383.36 32.167 382.735 34.6067C382.172 36.9838 381.89 39.6738 381.89 42.6765ZM410.51 57.9715C409.009 61.2245 407.007 63.7267 404.505 65.4783C402.065 67.2299 398.937 68.1057 395.121 68.1057C392.056 68.1057 389.241 67.5114 386.676 66.3228C384.174 65.0717 382.015 63.3514 380.201 61.1619C378.387 58.9099 376.98 56.22 375.979 53.0921C374.978 49.9643 374.477 46.4924 374.477 42.6765C374.477 38.0473 375.04 34.075 376.166 30.7595C377.355 27.444 378.888 24.7227 380.764 22.5958C382.704 20.4689 384.956 18.9363 387.52 17.9979C390.085 16.997 392.775 16.4966 395.59 16.4966C399.344 16.5591 402.503 17.6539 405.068 19.7808C407.632 21.9077 409.509 24.5664 410.698 27.7567V20.9068C410.698 19.9059 410.979 19.0301 411.542 18.2794C412.168 17.5287 413.106 17.1534 414.357 17.1534C415.608 17.216 416.515 17.6226 417.078 18.3733C417.641 19.0614 417.923 19.9059 417.923 20.9068V63.7893C417.923 64.7902 417.641 65.6347 417.078 66.3228C416.578 67.0735 415.64 67.4801 414.263 67.5427C412.887 67.5427 411.918 67.1673 411.355 66.4167C410.792 65.666 410.51 64.7902 410.51 63.7893V57.9715Z" fill="black"/>
<path d="M434.444 63.8831C434.444 66.3854 433.255 67.6365 430.878 67.6365C428.438 67.6365 427.218 66.3854 427.218 63.8831V21.0945C427.218 19.6557 427.563 18.6548 428.251 18.0918C428.939 17.4662 429.815 17.1534 430.878 17.1534C431.942 17.1534 432.786 17.4349 433.412 17.9979C434.1 18.5609 434.444 19.5931 434.444 21.0945V63.8831ZM426.092 5.42406C426.092 4.11038 426.53 2.98436 427.406 2.04601C428.345 1.10766 429.502 0.638489 430.878 0.638489C432.192 0.638489 433.286 1.10766 434.162 2.04601C435.101 2.98436 435.57 4.11038 435.57 5.42406C435.57 6.73775 435.101 7.86377 434.162 8.80212C433.286 9.74046 432.192 10.2096 430.878 10.2096C429.502 10.2096 428.345 9.74046 427.406 8.80212C426.53 7.86377 426.092 6.73775 426.092 5.42406Z" fill="black"/>
<path d="M290.875 51.1101C290.322 51.1184 289.847 51.4949 289.661 52.0162C289.384 52.7897 289.037 53.4946 288.619 54.1308C288.046 55.0193 287.339 55.7708 286.5 56.3854C285.675 57.0151 284.726 57.5002 283.65 57.8404C282.59 58.1804 281.412 58.3601 280.116 58.3795C277.693 58.4158 275.554 57.8458 273.699 56.6695C271.86 55.493 270.414 53.7626 269.361 51.4783C268.308 49.2095 267.757 46.4237 267.708 43.1211C267.658 39.8184 268.118 37.0021 269.086 34.6722C270.055 32.3422 271.448 30.5539 273.266 29.3073C275.085 28.076 277.244 27.4417 279.744 27.4043C282.013 27.3703 283.956 27.7426 285.573 28.5211C287.205 29.3148 288.457 30.4461 289.328 31.915C290.191 33.3443 290.648 35.0356 290.7 36.9889C290.702 37.074 290.779 37.1382 290.863 37.1245C291.033 37.0967 291.011 36.8449 290.838 36.8475L281.35 36.9894C280.888 36.9963 280.519 37.3765 280.526 37.8384L280.608 43.3069C280.618 43.9927 281.182 44.5403 281.868 44.53L299.224 44.2704C299.909 44.2601 300.457 43.6959 300.447 43.0101L300.376 38.2793C300.313 34.1124 299.38 30.5451 297.576 27.5774C295.772 24.6252 293.314 22.362 290.204 20.7877C287.093 19.2288 283.547 18.4792 279.565 18.5388C275.12 18.6053 271.231 19.6437 267.896 21.654C264.561 23.6797 261.979 26.52 260.151 30.175C258.338 33.8451 257.469 38.1803 257.544 43.1805C257.601 47.0233 258.208 50.4411 259.365 53.4339C260.536 56.4419 262.149 58.9802 264.202 61.0489C266.255 63.1175 268.633 64.6796 271.334 65.7352C274.036 66.7907 276.954 67.2951 280.086 67.2482C282.772 67.208 285.266 66.7771 287.569 65.9554C289.873 65.1491 291.909 64.0226 293.678 62.576C295.462 61.1292 296.911 59.4172 298.023 57.4402C298.91 55.8765 299.536 54.1893 299.899 52.3785C300.048 51.6398 299.454 50.9818 298.701 50.993L290.875 51.1101Z" fill="black"/>
<path d="M145.917 66.1357C145.231 66.1357 144.675 65.5798 144.675 64.8939V19.9623C144.675 19.2765 145.231 18.7205 145.917 18.7205H153.458C154.144 18.7205 154.7 19.2765 154.7 19.9623V39.2028C154.7 39.4369 154.89 39.6267 155.124 39.6267C155.251 39.6267 155.372 39.5695 155.452 39.4708L172.015 19.1771C172.251 18.8881 172.605 18.7205 172.978 18.7205H181.762C182.813 18.7205 183.389 19.9453 182.718 20.7547L167.404 39.2321C167.051 39.6578 167.022 40.2656 167.333 40.7228L183.293 64.1957C183.854 65.0201 183.263 66.1357 182.266 66.1357H173.284C172.869 66.1357 172.481 65.9281 172.251 65.5825L160.562 48.0384C160.099 47.3439 159.097 47.2944 158.568 47.94L154.981 52.318C154.799 52.54 154.7 52.8181 154.7 53.105V64.8939C154.7 65.5798 154.144 66.1357 153.458 66.1357H145.917Z" fill="black"/>
<path d="M33.2088 34.5103C32.6552 34.5103 32.1754 34.141 31.9812 33.6226C31.6931 32.8533 31.3354 32.1537 30.9079 31.5237C30.3214 30.644 29.6037 29.9031 28.7548 29.3011C27.9213 28.6838 26.9643 28.213 25.8839 27.8889C24.8189 27.5647 23.6382 27.4027 22.3417 27.4027C19.9184 27.4027 17.7884 28.0046 15.9517 29.2085C14.1304 30.4124 12.7104 32.1643 11.6918 34.464C10.6731 36.7484 10.1637 39.542 10.1637 42.8451C10.1637 46.1481 10.6653 48.9572 11.6686 51.2724C12.6719 53.5876 14.0918 55.3548 15.9286 56.5742C17.7653 57.7781 19.9339 58.38 22.4343 58.38C24.7032 58.38 26.6402 57.9787 28.2454 57.1761C29.8661 56.3581 31.1008 55.2082 31.9497 53.7265C32.791 52.2844 33.2228 50.5864 33.2453 48.6326C33.2463 48.5475 33.3219 48.4822 33.4061 48.4946C33.577 48.5198 33.5584 48.772 33.3857 48.772H23.896C23.4339 48.772 23.0594 48.3974 23.0594 47.9354V42.4662C23.0594 41.7804 23.6154 41.2244 24.3012 41.2244H41.6588C42.3446 41.2244 42.9006 41.7804 42.9006 42.4662V47.1976C42.9006 51.365 42.0209 54.9458 40.2613 57.9401C38.5018 60.919 36.0785 63.2188 32.9916 64.8394C29.9046 66.4447 26.3701 67.2473 22.388 67.2473C17.9428 67.2473 14.0378 66.2672 10.6731 64.3069C7.30831 62.3313 4.68442 59.5299 2.80139 55.9028C0.933797 52.2602 0 47.9385 0 42.9377C0 39.0944 0.555648 35.6679 1.66694 32.6582C2.79367 29.633 4.36801 27.0708 6.38995 24.9717C8.41189 22.8726 10.7657 21.2751 13.4513 20.1793C16.1369 19.0834 19.0464 18.5355 22.1796 18.5355C24.8652 18.5355 27.3656 18.9291 29.6808 19.7162C31.996 20.488 34.0489 21.5838 35.8393 23.0038C37.6451 24.4238 39.1191 26.1139 40.2613 28.0741C41.1717 29.6243 41.8223 31.3019 42.2129 33.1071C42.3723 33.8435 41.789 34.5103 41.0355 34.5103H33.2088Z" fill="black"/>
<path d="M129.578 51.9646C129.025 51.9729 128.55 52.3493 128.364 52.8707C128.087 53.6442 127.74 54.349 127.322 54.9853C126.749 55.8737 126.042 56.6253 125.203 57.2398C124.379 57.8696 123.429 58.3546 122.353 58.6949C121.293 59.0349 120.115 59.2146 118.819 59.234C116.396 59.2703 114.257 58.7003 112.402 57.524C110.563 56.3474 109.117 54.617 108.064 52.3328C107.011 50.0639 106.46 47.2782 106.411 43.9756C106.361 40.6729 106.821 37.8566 107.789 35.5267C108.758 33.1967 110.151 31.4084 111.969 30.1617C113.788 28.9305 115.947 28.2962 118.447 28.2588C120.716 28.2248 122.659 28.5971 124.276 29.3756C125.909 30.1693 127.16 31.3006 128.031 32.7694C128.894 34.1988 129.351 35.8901 129.403 37.8434C129.405 37.9285 129.482 37.9927 129.566 37.979C129.736 37.9512 129.714 37.6994 129.541 37.7019L120.053 37.8439C119.591 37.8508 119.222 38.2309 119.229 38.6929L119.311 44.1614C119.321 44.8472 119.885 45.3948 120.571 45.3845L137.927 45.1249C138.612 45.1146 139.16 44.5504 139.15 43.8646L139.079 39.1338C139.016 34.9669 138.083 31.3996 136.279 28.4319C134.475 25.4797 132.018 23.2164 128.907 21.6422C125.796 20.0833 122.25 19.3337 118.268 19.3932C113.824 19.4597 109.934 20.4981 106.599 22.5085C103.264 24.5342 100.682 27.3745 98.8538 31.0294C97.0409 34.6995 96.172 39.0347 96.2469 44.035C96.3044 47.8778 96.9113 51.2956 98.0676 54.2884C99.2395 57.2964 100.852 59.8347 102.905 61.9033C104.958 63.972 107.336 65.5341 110.038 66.5896C112.739 67.6452 115.657 68.1495 118.789 68.1027C121.475 68.0625 123.969 67.6316 126.272 66.8098C128.576 66.0036 130.612 64.8771 132.381 63.4305C134.165 61.9837 135.614 60.2717 136.726 58.2946C137.613 56.731 138.239 55.0438 138.602 53.233C138.751 52.4943 138.157 51.8362 137.404 51.8475L129.578 51.9646Z" fill="black"/>
<path d="M81.3842 51.9646C80.8306 51.9729 80.3564 52.3493 80.17 52.8707C79.8935 53.6442 79.5462 54.349 79.1283 54.9853C78.555 55.8737 77.8485 56.6253 77.0087 57.2398C76.1845 57.8696 75.2347 58.3546 74.1593 58.6949C73.0993 59.0349 71.9211 59.2146 70.6247 59.234C68.2017 59.2703 66.063 58.7003 64.2084 57.524C62.3693 56.3474 60.9232 54.617 59.8702 52.3328C58.8174 50.0639 58.2663 47.2782 58.2168 43.9756C58.1674 40.6729 58.6269 37.8566 59.5953 35.5267C60.5638 33.1967 61.9571 31.4084 63.7754 30.1617C65.5939 28.9305 67.7532 28.2962 70.2533 28.2588C72.522 28.2248 74.4648 28.5971 76.0819 29.3756C77.7146 30.1693 78.9664 31.3006 79.8374 32.7694C80.7002 34.1988 81.1574 35.8901 81.2092 37.8434C81.2114 37.9285 81.2879 37.9927 81.372 37.979C81.5425 37.9512 81.5202 37.6994 81.3474 37.7019L71.8588 37.8439C71.3968 37.8508 71.0279 38.2309 71.0348 38.6929L71.1167 44.1614C71.127 44.8472 71.6912 45.3948 72.377 45.3845L89.7326 45.1249C90.4184 45.1146 90.966 44.5504 90.9558 43.8646L90.8849 39.1338C90.8225 34.9669 89.8892 31.3996 88.085 28.4319C86.281 25.4797 83.8236 23.2164 80.7127 21.6422C77.6021 20.0833 74.0559 19.3337 70.0742 19.3932C65.6295 19.4597 61.7397 20.4981 58.4047 22.5085C55.0699 24.5342 52.4882 27.3745 50.6597 31.0294C48.8469 34.6995 47.978 39.0347 48.0529 44.035C48.1104 47.8778 48.7173 51.2956 49.8736 54.2884C51.0455 57.2964 52.658 59.8347 54.7112 61.9033C56.7643 63.972 59.1418 65.5341 61.8435 66.5896C64.5453 67.6452 67.4626 68.1495 70.5955 68.1027C73.2808 68.0625 75.7751 67.6316 78.0782 66.8098C80.3816 66.0036 82.4177 64.8771 84.1867 63.4305C85.9711 61.9837 87.4196 60.2717 88.5323 58.2946C89.4194 56.731 90.0447 55.0438 90.4083 53.233C90.5566 52.4943 89.9634 51.8362 89.2101 51.8475L81.3842 51.9646Z" fill="black"/>
<path d="M194.409 64.6021C193.723 64.6021 193.167 64.0461 193.167 63.3603V21.3922C193.167 20.7063 193.723 20.1503 194.409 20.1503H196.932C197.618 20.1503 198.174 20.7063 198.174 21.3922V26.7054C198.174 26.8572 198.297 26.9802 198.448 26.9802C198.562 26.9802 198.663 26.9101 198.706 26.8049C199.6 24.5923 201.053 22.8468 203.065 21.5684C205.148 20.2371 207.647 19.5715 210.56 19.5715C213.628 19.5715 216.145 20.295 218.113 21.742C220.054 23.1362 221.516 25.0454 222.5 27.4698C222.543 27.5756 222.645 27.6458 222.759 27.6458C222.872 27.6458 222.974 27.5771 223.018 27.473C224.026 25.0847 225.633 23.184 227.837 21.771C230.114 20.3047 232.873 19.5715 236.114 19.5715C240.243 19.5715 243.503 20.8738 245.896 23.4784C248.288 26.0637 249.484 29.8452 249.484 34.8229V63.3603C249.484 64.0461 248.928 64.6021 248.242 64.6021H245.575C244.889 64.6021 244.333 64.0461 244.333 63.3603V34.8229C244.333 31.3115 243.436 28.678 241.642 26.9223C239.847 25.1666 237.484 24.2887 234.551 24.2887C231.156 24.2887 228.541 25.3306 226.708 27.4143C224.876 29.4979 223.959 32.1411 223.959 35.3438V63.3603C223.959 64.0461 223.403 64.6021 222.717 64.6021H219.934C219.248 64.6021 218.692 64.0461 218.692 63.3603V34.3599C218.692 31.3501 217.853 28.9191 216.174 27.067C214.496 25.2148 212.132 24.2887 209.084 24.2887C207.039 24.2887 205.196 24.7904 203.557 25.7936C201.936 26.7969 200.653 28.1956 199.707 29.9899C198.781 31.7649 198.318 33.81 198.318 36.1252V63.3603C198.318 64.0462 197.762 64.6021 197.077 64.6021H194.409Z" fill="black"/>
<path d="M328.15 66.1357C324.311 66.1357 320.915 65.1614 317.963 63.2128C315.03 61.2642 312.734 58.5728 311.075 55.1385C309.416 51.685 308.586 47.701 308.586 43.1863C308.586 38.6331 309.416 34.6297 311.075 31.1762C312.734 27.7034 315.03 25.0024 317.963 23.073C320.915 21.1244 324.311 20.1501 328.15 20.1501C331.989 20.1501 335.375 21.1244 338.308 23.073C341.24 25.0217 343.536 27.7227 345.196 31.1762C346.874 34.6297 347.713 38.6331 347.713 43.1863C347.713 47.701 346.884 51.685 345.224 55.1385C343.565 58.5728 341.26 61.2642 338.308 63.2128C335.375 65.1614 331.989 66.1357 328.15 66.1357ZM328.15 61.4185C331.237 61.4185 333.851 60.5889 335.993 58.9297C338.134 57.2705 339.755 55.0614 340.854 52.3024C341.974 49.5435 342.533 46.5048 342.533 43.1863C342.533 39.8679 341.974 36.8195 340.854 34.0413C339.755 31.2631 338.134 29.0347 335.993 27.3562C333.851 25.6776 331.237 24.8384 328.15 24.8384C325.082 24.8384 322.468 25.6776 320.307 27.3562C318.166 29.0347 316.535 31.2631 315.416 34.0413C314.317 36.8195 313.767 39.8679 313.767 43.1863C313.767 46.5048 314.317 49.5435 315.416 52.3024C316.535 55.0614 318.166 57.2705 320.307 58.9297C322.449 60.5889 325.063 61.4185 328.15 61.4185Z" fill="black"/>
</svg>
