<svg width="460" height="113" viewBox="0 0 460 113" fill="none" xmlns="http://www.w3.org/2000/svg">
<path d="M356.093 61.7249C356.093 60.2861 356.594 59.0976 357.594 58.1592C358.595 57.1583 359.784 56.6579 361.16 56.6579C362.536 56.6579 363.694 57.1583 364.632 58.1592C365.633 59.0976 366.133 60.2861 366.133 61.7249C366.133 63.0386 365.633 64.1959 364.632 65.1968C363.694 66.1977 362.536 66.6982 361.16 66.6982C359.784 66.6982 358.595 66.1977 357.594 65.1968C356.594 64.1959 356.093 63.0386 356.093 61.7249Z" fill="black"/>
<path d="M381.891 42.6765C381.954 48.6819 383.299 53.3736 385.926 56.7517C388.553 60.1297 392.244 61.8188 396.998 61.8188C399.376 61.8188 401.409 61.3496 403.098 60.4112C404.849 59.4103 406.288 58.0654 407.414 56.3763C408.54 54.6248 409.385 52.5917 409.948 50.2771C410.511 47.9625 410.792 45.4602 410.792 42.7703C410.792 40.0804 410.479 37.5468 409.854 35.1697C409.228 32.73 408.321 30.6343 407.133 28.8828C405.944 27.0686 404.474 25.6298 402.722 24.5664C401.033 23.5029 399.063 22.9712 396.811 22.9712C394.246 22.9712 392.025 23.4403 390.148 24.3787C388.334 25.2545 386.802 26.5682 385.551 28.3197C384.299 30.0713 383.361 32.167 382.736 34.6067C382.173 36.9838 381.891 39.6738 381.891 42.6765ZM410.511 57.9715C409.009 61.2245 407.008 63.7267 404.505 65.4783C402.066 67.2299 398.938 68.1057 395.122 68.1057C392.056 68.1057 389.241 67.5114 386.677 66.3228C384.174 65.0717 382.016 63.3514 380.202 61.1619C378.388 58.9099 376.98 56.22 375.979 53.0921C374.979 49.9643 374.478 46.4924 374.478 42.6765C374.478 38.0473 375.041 34.075 376.167 30.7595C377.356 27.444 378.888 24.7227 380.765 22.5958C382.704 20.4689 384.956 18.9363 387.521 17.9979C390.086 16.997 392.776 16.4966 395.591 16.4966C399.344 16.5591 402.503 17.6539 405.068 19.7808C407.633 21.9077 409.51 24.5664 410.698 27.7567V20.9068C410.698 19.9059 410.98 19.0301 411.543 18.2794C412.168 17.5287 413.107 17.1534 414.358 17.1534C415.609 17.216 416.516 17.6226 417.079 18.3733C417.642 19.0614 417.924 19.9059 417.924 20.9068V63.7893C417.924 64.7902 417.642 65.6347 417.079 66.3228C416.579 67.0735 415.64 67.4801 414.264 67.5427C412.888 67.5427 411.918 67.1673 411.355 66.4167C410.792 65.666 410.511 64.7902 410.511 63.7893V57.9715Z" fill="black"/>
<path d="M434.444 63.8831C434.444 66.3854 433.256 67.6365 430.879 67.6365C428.439 67.6365 427.219 66.3854 427.219 63.8831V21.0945C427.219 19.6557 427.563 18.6548 428.251 18.0918C428.939 17.4662 429.815 17.1534 430.879 17.1534C431.942 17.1534 432.786 17.4349 433.412 17.9979C434.1 18.5609 434.444 19.5931 434.444 21.0945V63.8831ZM426.093 5.42406C426.093 4.11038 426.531 2.98436 427.407 2.04601C428.345 1.10766 429.502 0.638489 430.879 0.638489C432.192 0.638489 433.287 1.10766 434.163 2.04601C435.101 2.98436 435.57 4.11038 435.57 5.42406C435.57 6.73775 435.101 7.86377 434.163 8.80212C433.287 9.74046 432.192 10.2096 430.879 10.2096C429.502 10.2096 428.345 9.74046 427.407 8.80212C426.531 7.86377 426.093 6.73775 426.093 5.42406Z" fill="black"/>
<path d="M290.876 51.1101C290.322 51.1184 289.848 51.4949 289.662 52.0162C289.385 52.7897 289.038 53.4946 288.62 54.1308C288.047 55.0193 287.34 55.7708 286.5 56.3854C285.676 57.0151 284.726 57.5002 283.651 57.8404C282.591 58.1804 281.413 58.3601 280.116 58.3795C277.693 58.4158 275.555 57.8458 273.7 56.6695C271.861 55.493 270.415 53.7626 269.362 51.4783C268.309 49.2095 267.758 46.4237 267.708 43.1211C267.659 39.8184 268.118 37.0021 269.087 34.6722C270.055 32.3422 271.449 30.5539 273.267 29.3073C275.085 28.076 277.245 27.4417 279.745 27.4043C282.014 27.3703 283.956 27.7426 285.573 28.5211C287.206 29.3148 288.458 30.4461 289.329 31.915C290.192 33.3443 290.649 35.0356 290.701 36.9889C290.703 37.074 290.78 37.1382 290.864 37.1245C291.034 37.0967 291.012 36.8449 290.839 36.8475L281.35 36.9894C280.888 36.9963 280.519 37.3765 280.526 37.8384L280.608 43.3069C280.619 43.9927 281.183 44.5403 281.869 44.53L299.224 44.2704C299.91 44.2601 300.458 43.6959 300.447 43.0101L300.376 38.2793C300.314 34.1124 299.381 30.5451 297.577 27.5774C295.773 24.6252 293.315 22.362 290.204 20.7877C287.094 19.2288 283.547 18.4792 279.566 18.5388C275.121 18.6053 271.231 19.6437 267.896 21.654C264.561 23.6797 261.98 26.52 260.151 30.175C258.338 33.8451 257.47 38.1803 257.544 43.1805C257.602 47.0233 258.209 50.4411 259.365 53.4339C260.537 56.4419 262.15 58.9802 264.203 61.0489C266.256 63.1175 268.633 64.6796 271.335 65.7352C274.037 66.7907 276.954 67.2951 280.087 67.2482C282.772 67.208 285.267 66.7771 287.57 65.9554C289.873 65.1491 291.909 64.0226 293.678 62.576C295.463 61.1292 296.911 59.4172 298.024 57.4402C298.911 55.8765 299.536 54.1893 299.9 52.3785C300.048 51.6398 299.455 50.9818 298.702 50.993L290.876 51.1101Z" fill="black"/>
<path d="M145.918 66.1357C145.232 66.1357 144.676 65.5798 144.676 64.8939V19.9623C144.676 19.2765 145.232 18.7205 145.918 18.7205H153.459C154.145 18.7205 154.701 19.2765 154.701 19.9623V39.2028C154.701 39.4369 154.89 39.6267 155.124 39.6267C155.252 39.6267 155.372 39.5695 155.453 39.4708L172.016 19.1771C172.252 18.8881 172.605 18.7205 172.978 18.7205H181.762C182.814 18.7205 183.389 19.9453 182.719 20.7547L167.405 39.2321C167.052 39.6578 167.023 40.2656 167.334 40.7228L183.294 64.1957C183.854 65.0201 183.264 66.1357 182.267 66.1357H173.285C172.87 66.1357 172.482 65.9281 172.252 65.5825L160.562 48.0384C160.1 47.3439 159.097 47.2944 158.568 47.94L154.982 52.318C154.8 52.54 154.701 52.8181 154.701 53.105V64.8939C154.701 65.5798 154.145 66.1357 153.459 66.1357H145.918Z" fill="black"/>
<path d="M33.2094 34.5103C32.6558 34.5103 32.1759 34.141 31.9818 33.6226C31.6937 32.8533 31.3359 32.1537 30.9085 31.5237C30.322 30.644 29.6042 29.9031 28.7553 29.3011C27.9218 28.6838 26.9649 28.213 25.8845 27.8889C24.8195 27.5647 23.6387 27.4027 22.3422 27.4027C19.919 27.4027 17.789 28.0046 15.9523 29.2085C14.131 30.4124 12.711 32.1643 11.6923 34.464C10.6736 36.7484 10.1643 39.542 10.1643 42.8451C10.1643 46.1481 10.6659 48.9572 11.6692 51.2724C12.6724 53.5876 14.0924 55.3548 15.9291 56.5742C17.7659 57.7781 19.9344 58.38 22.4348 58.38C24.7037 58.38 26.6408 57.9787 28.246 57.1761C29.8666 56.3581 31.1014 55.2082 31.9503 53.7265C32.7915 52.2844 33.2234 50.5864 33.2459 48.6326C33.2469 48.5475 33.3224 48.4822 33.4066 48.4946C33.5775 48.5198 33.559 48.772 33.3862 48.772H23.8965C23.4345 48.772 23.0599 48.3974 23.0599 47.9354V42.4662C23.0599 41.7804 23.6159 41.2244 24.3018 41.2244H41.6594C42.3452 41.2244 42.9012 41.7804 42.9012 42.4662V47.1976C42.9012 51.365 42.0214 54.9458 40.2619 57.9401C38.5023 60.919 36.0791 63.2188 32.9921 64.8394C29.9052 66.4447 26.3707 67.2473 22.3885 67.2473C17.9433 67.2473 14.0384 66.2672 10.6736 64.3069C7.30887 62.3313 4.68497 59.5299 2.80194 55.9028C0.934347 52.2602 0.000549316 47.9385 0.000549316 42.9377C0.000549316 39.0944 0.5562 35.6679 1.6675 32.6582C2.79423 29.633 4.36856 27.0708 6.3905 24.9717C8.41244 22.8726 10.7662 21.2751 13.4519 20.1793C16.1375 19.0834 19.0469 18.5355 22.1802 18.5355C24.8658 18.5355 27.3662 18.9291 29.6814 19.7162C31.9966 20.488 34.0494 21.5838 35.8398 23.0038C37.6457 24.4238 39.1197 26.1139 40.2619 28.0741C41.1723 29.6243 41.8228 31.3019 42.2135 33.1071C42.3729 33.8435 41.7895 34.5103 41.0361 34.5103H33.2094Z" fill="black"/>
<path d="M129.579 51.9646C129.025 51.9729 128.551 52.3493 128.365 52.8707C128.088 53.6442 127.741 54.349 127.323 54.9853C126.75 55.8737 126.043 56.6253 125.203 57.2398C124.379 57.8696 123.429 58.3546 122.354 58.6949C121.294 59.0349 120.116 59.2146 118.819 59.234C116.396 59.2703 114.258 58.7003 112.403 57.524C110.564 56.3474 109.118 54.617 108.065 52.3328C107.012 50.0639 106.461 47.2782 106.411 43.9756C106.362 40.6729 106.821 37.8566 107.79 35.5267C108.758 33.1967 110.152 31.4084 111.97 30.1617C113.788 28.9305 115.948 28.2962 118.448 28.2588C120.717 28.2248 122.659 28.5971 124.276 29.3756C125.909 30.1693 127.161 31.3006 128.032 32.7694C128.895 34.1988 129.352 35.8901 129.404 37.8434C129.406 37.9285 129.482 37.9927 129.566 37.979C129.737 37.9512 129.715 37.6994 129.542 37.7019L120.053 37.8439C119.591 37.8508 119.222 38.2309 119.229 38.6929L119.311 44.1614C119.322 44.8472 119.886 45.3948 120.572 45.3845L137.927 45.1249C138.613 45.1146 139.161 44.5504 139.15 43.8646L139.079 39.1338C139.017 34.9669 138.084 31.3996 136.28 28.4319C134.476 25.4797 132.018 23.2164 128.907 21.6422C125.797 20.0833 122.25 19.3337 118.269 19.3932C113.824 19.4597 109.934 20.4981 106.599 22.5085C103.264 24.5342 100.683 27.3745 98.8543 31.0294C97.0415 34.6995 96.1725 39.0347 96.2474 44.035C96.305 47.8778 96.9119 51.2956 98.0681 54.2884C99.2401 57.2964 100.853 59.8347 102.906 61.9033C104.959 63.972 107.336 65.5341 110.038 66.5896C112.74 67.6452 115.657 68.1495 118.79 68.1027C121.475 68.0625 123.97 67.6316 126.273 66.8098C128.576 66.0036 130.612 64.8771 132.381 63.4305C134.166 61.9837 135.614 60.2717 136.727 58.2946C137.614 56.731 138.239 55.0438 138.603 53.233C138.751 52.4943 138.158 51.8362 137.405 51.8475L129.579 51.9646Z" fill="black"/>
<path d="M81.3848 51.9646C80.8312 51.9729 80.3569 52.3493 80.1706 52.8707C79.894 53.6442 79.5468 54.349 79.1288 54.9853C78.5556 55.8737 77.849 56.6253 77.0092 57.2398C76.1851 57.8696 75.2353 58.3546 74.1599 58.6949C73.0999 59.0349 71.9217 59.2146 70.6253 59.234C68.2024 59.2703 66.0636 58.7003 64.209 57.524C62.3699 56.3474 60.9238 54.617 59.8708 52.3328C58.818 50.0639 58.2669 47.2782 58.2174 43.9756C58.168 40.6729 58.6275 37.8566 59.5959 35.5267C60.5644 33.1967 61.9577 31.4084 63.776 30.1617C65.5945 28.9305 67.7538 28.2962 70.2539 28.2588C72.5226 28.2248 74.4654 28.5971 76.0825 29.3756C77.7152 30.1693 78.967 31.3006 79.838 32.7694C80.7008 34.1988 81.158 35.8901 81.2097 37.8434C81.212 37.9285 81.2885 37.9927 81.3725 37.979C81.543 37.9512 81.5207 37.6994 81.348 37.7019L71.8594 37.8439C71.3974 37.8508 71.0285 38.2309 71.0354 38.6929L71.1173 44.1614C71.1276 44.8472 71.6918 45.3948 72.3776 45.3845L89.7332 45.1249C90.419 45.1146 90.9666 44.5504 90.9563 43.8646L90.8855 39.1338C90.823 34.9669 89.8897 31.3996 88.0855 28.4319C86.2816 25.4797 83.8241 23.2164 80.7133 21.6422C77.6027 20.0833 74.0565 19.3337 70.0748 19.3932C65.6301 19.4597 61.7403 20.4981 58.4053 22.5085C55.0705 24.5342 52.4888 27.3745 50.6603 31.0294C48.8475 34.6995 47.9785 39.0347 48.0534 44.035C48.111 47.8778 48.7179 51.2956 49.8741 54.2884C51.0461 57.2964 52.6587 59.8347 54.7118 61.9033C56.765 63.972 59.1424 65.5341 61.8441 66.5896C64.5459 67.6452 67.4632 68.1495 70.5961 68.1027C73.2814 68.0625 75.7756 67.6316 78.0788 66.8098C80.3822 66.0036 82.4183 64.8771 84.1873 63.4305C85.9717 61.9837 87.4202 60.2717 88.5329 58.2946C89.42 56.731 90.0453 55.0438 90.4089 53.233C90.5572 52.4943 89.964 51.8362 89.2106 51.8475L81.3848 51.9646Z" fill="black"/>
<path d="M194.41 64.6021C193.724 64.6021 193.168 64.0461 193.168 63.3603V21.3922C193.168 20.7063 193.724 20.1503 194.41 20.1503H196.932C197.618 20.1503 198.174 20.7063 198.174 21.3922V26.7054C198.174 26.8572 198.297 26.9802 198.449 26.9802C198.562 26.9802 198.664 26.9101 198.707 26.8049C199.601 24.5923 201.054 22.8468 203.065 21.5684C205.149 20.2371 207.647 19.5715 210.561 19.5715C213.628 19.5715 216.146 20.295 218.114 21.742C220.054 23.1362 221.517 25.0454 222.501 27.4698C222.543 27.5756 222.646 27.6458 222.76 27.6458C222.873 27.6458 222.975 27.5771 223.019 27.473C224.027 25.0847 225.633 23.184 227.838 21.771C230.114 20.3047 232.873 19.5715 236.115 19.5715C240.243 19.5715 243.504 20.8738 245.896 23.4784C248.289 26.0637 249.485 29.8452 249.485 34.8229V63.3603C249.485 64.0461 248.929 64.6021 248.243 64.6021H245.575C244.89 64.6021 244.334 64.0461 244.334 63.3603V34.8229C244.334 31.3115 243.436 28.678 241.642 26.9223C239.848 25.1666 237.484 24.2887 234.552 24.2887C231.156 24.2887 228.542 25.3306 226.709 27.4143C224.876 29.4979 223.96 32.1411 223.96 35.3438V63.3603C223.96 64.0461 223.404 64.6021 222.718 64.6021H219.935C219.249 64.6021 218.693 64.0461 218.693 63.3603V34.3599C218.693 31.3501 217.854 28.9191 216.175 27.067C214.496 25.2148 212.133 24.2887 209.085 24.2887C207.04 24.2887 205.197 24.7904 203.557 25.7936C201.936 26.7969 200.653 28.1956 199.708 29.9899C198.782 31.7649 198.319 33.81 198.319 36.1252V63.3603C198.319 64.0462 197.763 64.6021 197.077 64.6021H194.41Z" fill="black"/>
<path d="M328.151 66.1357C324.311 66.1357 320.916 65.1614 317.964 63.2128C315.031 61.2642 312.735 58.5728 311.076 55.1385C309.417 51.685 308.587 47.701 308.587 43.1863C308.587 38.6331 309.417 34.6297 311.076 31.1762C312.735 27.7034 315.031 25.0024 317.964 23.073C320.916 21.1244 324.311 20.1501 328.151 20.1501C331.99 20.1501 335.376 21.1244 338.308 23.073C341.241 25.0217 343.537 27.7227 345.196 31.1762C346.875 34.6297 347.714 38.6331 347.714 43.1863C347.714 47.701 346.884 51.685 345.225 55.1385C343.566 58.5728 341.26 61.2642 338.308 63.2128C335.376 65.1614 331.99 66.1357 328.151 66.1357ZM328.151 61.4185C331.237 61.4185 333.852 60.5889 335.993 58.9297C338.135 57.2705 339.755 55.0614 340.855 52.3024C341.974 49.5435 342.534 46.5048 342.534 43.1863C342.534 39.8679 341.974 36.8195 340.855 34.0413C339.755 31.2631 338.135 29.0347 335.993 27.3562C333.852 25.6776 331.237 24.8384 328.151 24.8384C325.083 24.8384 322.469 25.6776 320.308 27.3562C318.166 29.0347 316.536 31.2631 315.417 34.0413C314.317 36.8195 313.767 39.8679 313.767 43.1863C313.767 46.5048 314.317 49.5435 315.417 52.3024C316.536 55.0614 318.166 57.2705 320.308 58.9297C322.449 60.5889 325.064 61.4185 328.151 61.4185Z" fill="black"/>
<path d="M386.17 103.106V76.9239H389.188V86.5887H389.443C389.665 86.2478 389.972 85.8131 390.364 85.2847C390.764 84.7478 391.335 84.2705 392.077 83.8529C392.827 83.4267 393.841 83.2137 395.119 83.2137C396.773 83.2137 398.23 83.627 399.491 84.4537C400.753 85.2804 401.737 86.4523 402.445 87.9693C403.152 89.4864 403.506 91.2762 403.506 93.3387C403.506 95.4182 403.152 97.2208 402.445 98.7463C401.737 100.263 400.757 101.44 399.504 102.275C398.251 103.101 396.807 103.515 395.17 103.515C393.909 103.515 392.899 103.306 392.141 102.888C391.382 102.462 390.798 101.981 390.389 101.444C389.98 100.898 389.665 100.447 389.443 100.089H389.085V103.106H386.17ZM389.136 93.2875C389.136 94.7705 389.354 96.0787 389.788 97.2122C390.223 98.3372 390.858 99.2193 391.693 99.8586C392.528 100.489 393.551 100.805 394.761 100.805C396.023 100.805 397.075 100.472 397.919 99.8074C398.771 99.1341 399.411 98.2307 399.837 97.0972C400.271 95.9551 400.489 94.6853 400.489 93.2875C400.489 91.9068 400.276 90.6625 399.849 89.5546C399.432 88.4381 398.797 87.556 397.945 86.9083C397.101 86.252 396.04 85.9239 394.761 85.9239C393.534 85.9239 392.503 86.235 391.668 86.8571C390.832 87.4708 390.202 88.3316 389.776 89.4395C389.349 90.539 389.136 91.8216 389.136 93.2875ZM416.354 103.515C414.462 103.515 412.83 103.097 411.457 102.262C410.094 101.418 409.041 100.242 408.3 98.7336C407.567 97.2165 407.2 95.4523 407.2 93.4409C407.2 91.4296 407.567 89.6568 408.3 88.1228C409.041 86.5801 410.072 85.3784 411.393 84.5176C412.723 83.6483 414.274 83.2137 416.047 83.2137C417.07 83.2137 418.08 83.3841 419.077 83.725C420.074 84.0659 420.982 84.6199 421.8 85.387C422.618 86.1455 423.27 87.1512 423.756 88.404C424.241 89.6568 424.484 91.1995 424.484 93.0318V94.3103H409.348V91.7023H421.416C421.416 90.5943 421.195 89.6057 420.751 88.7364C420.317 87.8671 419.695 87.181 418.885 86.6782C418.084 86.1753 417.138 85.9239 416.047 85.9239C414.845 85.9239 413.805 86.2222 412.928 86.8188C412.058 87.4068 411.389 88.1739 410.92 89.1199C410.452 90.0659 410.217 91.0801 410.217 92.1625V93.9012C410.217 95.3841 410.473 96.6412 410.984 97.6725C411.504 98.6952 412.224 99.475 413.145 100.012C414.065 100.54 415.135 100.805 416.354 100.805C417.146 100.805 417.862 100.694 418.501 100.472C419.149 100.242 419.707 99.9012 420.176 99.4495C420.645 98.9892 421.007 98.4182 421.263 97.7364L424.178 98.5546C423.871 99.5432 423.355 100.413 422.631 101.163C421.906 101.904 421.011 102.484 419.946 102.901C418.881 103.31 417.683 103.515 416.354 103.515ZM437.614 83.4693V86.0262H427.438V83.4693H437.614ZM430.403 78.7648H433.42V97.4807C433.42 98.333 433.544 98.9722 433.791 99.3983C434.047 99.8159 434.371 100.097 434.763 100.242C435.163 100.378 435.585 100.447 436.028 100.447C436.361 100.447 436.634 100.43 436.847 100.395C437.06 100.353 437.23 100.319 437.358 100.293L437.972 103.003C437.767 103.08 437.482 103.157 437.115 103.234C436.749 103.319 436.284 103.361 435.722 103.361C434.869 103.361 434.034 103.178 433.216 102.812C432.406 102.445 431.733 101.887 431.196 101.137C430.668 100.387 430.403 99.4409 430.403 98.2989V78.7648ZM447.93 103.566C446.686 103.566 445.557 103.332 444.543 102.863C443.528 102.386 442.723 101.699 442.126 100.805C441.53 99.9012 441.232 98.8103 441.232 97.5318C441.232 96.4068 441.453 95.4949 441.896 94.7961C442.339 94.0887 442.932 93.5347 443.673 93.1341C444.415 92.7336 445.233 92.4353 446.128 92.2392C447.031 92.0347 447.939 91.8728 448.851 91.7534C450.044 91.6 451.011 91.485 451.753 91.4083C452.503 91.323 453.048 91.1824 453.389 90.9864C453.739 90.7904 453.913 90.4495 453.913 89.9637V89.8614C453.913 88.6 453.568 87.6199 452.878 86.9211C452.196 86.2222 451.161 85.8728 449.771 85.8728C448.331 85.8728 447.202 86.1881 446.384 86.8188C445.565 87.4495 444.99 88.1228 444.658 88.8387L441.794 87.8159C442.305 86.6228 442.987 85.6938 443.839 85.029C444.7 84.3557 445.638 83.887 446.652 83.6228C447.675 83.35 448.68 83.2137 449.669 83.2137C450.3 83.2137 451.024 83.2904 451.842 83.4438C452.669 83.5887 453.466 83.8912 454.233 84.3514C455.009 84.8117 455.652 85.5063 456.163 86.4353C456.675 87.3642 456.93 88.6086 456.93 90.1682V103.106H453.913V100.447H453.76C453.555 100.873 453.214 101.329 452.737 101.815C452.26 102.3 451.625 102.714 450.832 103.055C450.04 103.395 449.072 103.566 447.93 103.566ZM448.391 100.856C449.584 100.856 450.589 100.621 451.408 100.153C452.234 99.6838 452.857 99.0787 453.274 98.3372C453.7 97.5958 453.913 96.8159 453.913 95.9978V93.2364C453.786 93.3898 453.504 93.5304 453.07 93.6583C452.643 93.7776 452.149 93.8841 451.587 93.9779C451.033 94.0631 450.491 94.1398 449.963 94.208C449.443 94.2676 449.021 94.3188 448.697 94.3614C447.913 94.4637 447.18 94.6299 446.499 94.86C445.825 95.0816 445.28 95.4182 444.862 95.8699C444.453 96.3131 444.249 96.9182 444.249 97.6853C444.249 98.7336 444.636 99.5262 445.412 100.063C446.196 100.592 447.189 100.856 448.391 100.856Z" fill="black"/>
</svg>
