<svg width="500" height="120" viewBox="0 0 500 120" fill="none" xmlns="http://www.w3.org/2000/svg">
<rect y="0.506317" width="500" height="118.987" fill="#030712"/>
<path d="M388.308 79.3656C388.308 77.9268 388.808 76.7382 389.809 75.7999C390.81 74.799 391.998 74.2985 393.375 74.2985C394.751 74.2985 395.908 74.799 396.847 75.7999C397.847 76.7382 398.348 77.9268 398.348 79.3656C398.348 80.6793 397.847 81.8366 396.847 82.8375C395.908 83.8384 394.751 84.3388 393.375 84.3388C391.998 84.3388 390.81 83.8384 389.809 82.8375C388.808 81.8366 388.308 80.6793 388.308 79.3656Z" fill="#BD3ED2"/>
<path d="M414.106 60.3171C414.168 66.3226 415.513 71.0143 418.14 74.3923C420.768 77.7704 424.459 79.4594 429.213 79.4594C431.59 79.4594 433.623 78.9902 435.312 78.0519C437.064 77.051 438.503 75.706 439.629 74.017C440.755 72.2654 441.599 70.2323 442.162 67.9177C442.725 65.6032 443.007 63.1009 443.007 60.411C443.007 57.721 442.694 55.1875 442.068 52.8103C441.443 50.3706 440.536 48.275 439.347 46.5234C438.159 44.7093 436.689 43.2705 434.937 42.207C433.248 41.1436 431.277 40.6118 429.025 40.6118C426.461 40.6118 424.24 41.081 422.363 42.0193C420.549 42.8951 419.016 44.2088 417.765 45.9604C416.514 47.712 415.576 49.8076 414.95 52.2473C414.387 54.6245 414.106 57.3144 414.106 60.3171ZM442.725 75.6122C441.224 78.8651 439.222 81.3674 436.72 83.119C434.28 84.8706 431.152 85.7464 427.336 85.7464C424.271 85.7464 421.456 85.1521 418.891 83.9635C416.389 82.7124 414.231 80.9921 412.417 78.8026C410.602 76.5505 409.195 73.8606 408.194 70.7328C407.193 67.605 406.693 64.1331 406.693 60.3171C406.693 55.6879 407.256 51.7156 408.382 48.4001C409.57 45.0846 411.103 42.3634 412.98 40.2365C414.919 38.1096 417.171 36.5769 419.736 35.6386C422.301 34.6377 424.99 34.1372 427.805 34.1372C431.559 34.1998 434.718 35.2945 437.283 37.4214C439.848 39.5484 441.724 42.207 442.913 45.3974V38.5475C442.913 37.5466 443.194 36.6708 443.757 35.9201C444.383 35.1694 445.321 34.7941 446.572 34.7941C447.824 34.8566 448.731 35.2632 449.294 36.0139C449.857 36.702 450.138 37.5466 450.138 38.5475V81.43C450.138 82.4309 449.857 83.2754 449.294 83.9635C448.793 84.7142 447.855 85.1208 446.479 85.1833C445.102 85.1833 444.133 84.808 443.57 84.0573C443.007 83.3066 442.725 82.4309 442.725 81.43V75.6122Z" fill="#EEEEEE"/>
<path d="M466.659 81.5238C466.659 84.026 465.47 85.2772 463.093 85.2772C460.654 85.2772 459.434 84.026 459.434 81.5238V38.7351C459.434 37.2963 459.778 36.2954 460.466 35.7324C461.154 35.1068 462.03 34.7941 463.093 34.7941C464.157 34.7941 465.001 35.0756 465.627 35.6386C466.315 36.2016 466.659 37.2338 466.659 38.7351V81.5238ZM458.308 23.0647C458.308 21.751 458.746 20.625 459.621 19.6867C460.56 18.7483 461.717 18.2791 463.093 18.2791C464.407 18.2791 465.502 18.7483 466.377 19.6867C467.316 20.625 467.785 21.751 467.785 23.0647C467.785 24.3784 467.316 25.5044 466.377 26.4428C465.502 27.3811 464.407 27.8503 463.093 27.8503C461.717 27.8503 460.56 27.3811 459.621 26.4428C458.746 25.5044 458.308 24.3784 458.308 23.0647Z" fill="#BD3ED2"/>
<path d="M323.09 68.7508C322.537 68.7591 322.062 69.1355 321.876 69.6568C321.6 70.4303 321.252 71.1352 320.834 71.7715C320.261 72.6599 319.555 73.4114 318.715 74.026C317.891 74.6558 316.941 75.1408 315.865 75.4811C314.805 75.8211 313.627 76.0008 312.331 76.0202C309.908 76.0564 307.769 75.4864 305.915 74.3101C304.075 73.1336 302.629 71.4032 301.576 69.119C300.524 66.8501 299.972 64.0644 299.923 60.7617C299.873 57.4591 300.333 54.6428 301.301 52.3128C302.27 49.9829 303.663 48.1946 305.482 46.9479C307.3 45.7167 309.459 45.0823 311.959 45.0449C314.228 45.011 316.171 45.3833 317.788 46.1618C319.421 46.9555 320.673 48.0868 321.544 49.5556C322.406 50.985 322.864 52.6763 322.915 54.6295C322.918 54.7146 322.994 54.7788 323.078 54.7651C323.249 54.7373 323.226 54.4855 323.054 54.4881L313.565 54.6301C313.103 54.637 312.734 55.0171 312.741 55.4791L312.823 60.9476C312.833 61.6334 313.397 62.181 314.083 62.1707L331.439 61.9111C332.125 61.9008 332.672 61.3365 332.662 60.6508L332.591 55.9199C332.529 51.753 331.595 48.1858 329.791 45.2181C327.987 42.2659 325.53 40.0026 322.419 38.4283C319.308 36.8695 315.762 36.1198 311.78 36.1794C307.336 36.2459 303.446 37.2843 300.111 39.2946C296.776 41.3204 294.194 44.1607 292.366 47.8156C290.553 51.4857 289.684 55.8209 289.759 60.8212C289.817 64.664 290.423 68.0818 291.58 71.0746C292.752 74.0826 294.364 76.6209 296.417 78.6895C298.47 80.7581 300.848 82.3202 303.55 83.3758C306.251 84.4314 309.169 84.9357 312.302 84.8888C314.987 84.8487 317.481 84.4177 319.784 83.596C322.088 82.7897 324.124 81.6633 325.893 80.2167C327.677 78.7698 329.126 77.0579 330.238 75.0808C331.126 73.5172 331.751 71.8299 332.114 70.0191C332.263 69.2805 331.669 68.6224 330.916 68.6337L323.09 68.7508Z" fill="#BD3ED2"/>
<path d="M178.132 83.7764C177.446 83.7764 176.89 83.2204 176.89 82.5346V37.603C176.89 36.9171 177.446 36.3611 178.132 36.3611H185.673C186.359 36.3611 186.915 36.9171 186.915 37.603V56.8435C186.915 57.0776 187.105 57.2674 187.339 57.2674C187.466 57.2674 187.587 57.2101 187.668 57.1115L204.231 36.8177C204.466 36.5288 204.82 36.3611 205.193 36.3611H213.977C215.028 36.3611 215.604 37.586 214.933 38.3954L199.619 56.8728C199.267 57.2985 199.238 57.9062 199.549 58.3635L215.508 81.8363C216.069 82.6608 215.479 83.7764 214.482 83.7764H205.5C205.084 83.7764 204.697 83.5688 204.466 83.2231L192.777 65.6791C192.314 64.9845 191.312 64.935 190.783 65.5806L187.196 69.9587C187.015 70.1807 186.915 70.4587 186.915 70.7457V82.5346C186.915 83.2204 186.359 83.7764 185.673 83.7764H178.132Z" fill="#BD3ED2"/>
<path d="M65.424 52.151C64.8704 52.151 64.3906 51.7817 64.1964 51.2632C63.9083 50.4939 63.5506 49.7943 63.1231 49.1644C62.5366 48.2846 61.8189 47.5438 60.97 46.9418C60.1365 46.3244 59.1796 45.8537 58.0991 45.5295C57.0341 45.2054 55.8534 45.0433 54.5569 45.0433C52.1336 45.0433 50.0037 45.6453 48.1669 46.8492C46.3456 48.0531 44.9257 49.8049 43.907 52.1047C42.8883 54.389 42.3789 57.1827 42.3789 60.4857C42.3789 63.7887 42.8806 66.5978 43.8838 68.913C44.8871 71.2282 46.3071 72.9955 48.1438 74.2148C49.9805 75.4187 52.1491 76.0207 54.6495 76.0207C56.9184 76.0207 58.8554 75.6194 60.4606 74.8168C62.0813 73.9987 63.316 72.8489 64.165 71.3671C65.0062 69.925 65.438 68.2271 65.4605 66.2733C65.4615 66.1882 65.5371 66.1228 65.6213 66.1352C65.7922 66.1605 65.7736 66.4126 65.6009 66.4126H56.1112C55.6491 66.4126 55.2746 66.0381 55.2746 65.576V60.1069C55.2746 59.4211 55.8306 58.8651 56.5164 58.8651H73.874C74.5599 58.8651 75.1158 59.4211 75.1158 60.1069V64.8383C75.1158 69.0056 74.2361 72.5865 72.4765 75.5808C70.717 78.5597 68.2937 80.8595 65.2068 82.4801C62.1199 84.0853 58.5853 84.8879 54.6032 84.8879C50.158 84.8879 46.253 83.9078 42.8883 81.9476C39.5235 79.972 36.8996 77.1706 35.0166 73.5434C33.149 69.9008 32.2152 65.5791 32.2152 60.5783C32.2152 56.7351 32.7709 53.3086 33.8822 50.2988C35.0089 47.2736 36.5832 44.7115 38.6052 42.6124C40.6271 40.5133 42.9809 38.9158 45.6665 37.8199C48.3521 36.7241 51.2616 36.1761 54.3948 36.1761C57.0804 36.1761 59.5809 36.5697 61.8961 37.3569C64.2113 38.1286 66.2641 39.2245 68.0545 40.6445C69.8603 42.0644 71.3344 43.7545 72.4765 45.7147C73.3869 47.2649 74.0375 48.9426 74.4281 50.7478C74.5875 51.4841 74.0042 52.151 73.2508 52.151H65.424Z" fill="#BD3ED2"/>
<path d="M161.793 69.6053C161.24 69.6135 160.766 69.99 160.579 70.5113C160.303 71.2848 159.955 71.9897 159.537 72.626C158.964 73.5144 158.258 74.2659 157.418 74.8805C156.594 75.5103 155.644 75.9953 154.568 76.3356C153.508 76.6756 152.33 76.8553 151.034 76.8747C148.611 76.9109 146.472 76.3409 144.618 75.1646C142.779 73.9881 141.332 72.2577 140.279 69.9734C139.227 67.7046 138.676 64.9189 138.626 61.6162C138.577 58.3136 139.036 55.4973 140.005 53.1673C140.973 50.8374 142.366 49.0491 144.185 47.8024C146.003 46.5711 148.162 45.9368 150.663 45.8994C152.931 45.8655 154.874 46.2378 156.491 47.0163C158.124 47.81 159.376 48.9412 160.247 50.4101C161.109 51.8395 161.567 53.5308 161.618 55.484C161.621 55.5691 161.697 55.6333 161.781 55.6196C161.952 55.5918 161.929 55.34 161.757 55.3426L152.268 55.4845C151.806 55.4915 151.437 55.8716 151.444 56.3336L151.526 61.8021C151.536 62.4879 152.1 63.0354 152.786 63.0252L170.142 62.7655C170.828 62.7553 171.375 62.191 171.365 61.5052L171.294 56.7744C171.232 52.6075 170.298 49.0402 168.494 46.0726C166.69 43.1203 164.233 40.8571 161.122 39.2828C158.011 37.724 154.465 36.9743 150.483 37.0339C146.039 37.1004 142.149 38.1388 138.814 40.1491C135.479 42.1749 132.897 45.0152 131.069 48.6701C129.256 52.3402 128.387 56.6754 128.462 61.6757C128.52 65.5185 129.127 68.9363 130.283 71.929C131.455 74.937 133.067 77.4754 135.12 79.544C137.174 81.6126 139.551 83.1747 142.253 84.2303C144.954 85.2859 147.872 85.7902 151.005 85.7433C153.69 85.7032 156.184 85.2722 158.487 84.4505C160.791 83.6442 162.827 82.5178 164.596 81.0712C166.38 79.6243 167.829 77.9124 168.941 75.9353C169.829 74.3717 170.454 72.6844 170.818 70.8736C170.966 70.135 170.373 69.4769 169.619 69.4882L161.793 69.6053Z" fill="#BD3ED2"/>
<path d="M113.599 69.6053C113.046 69.6135 112.572 69.99 112.385 70.5113C112.109 71.2848 111.761 71.9897 111.343 72.626C110.77 73.5144 110.064 74.2659 109.224 74.8805C108.4 75.5103 107.45 75.9953 106.374 76.3356C105.314 76.6756 104.136 76.8553 102.84 76.8747C100.417 76.9109 98.2782 76.3409 96.4236 75.1646C94.5845 73.9881 93.1385 72.2577 92.0854 69.9734C91.0326 67.7046 90.4815 64.9189 90.432 61.6162C90.3826 58.3136 90.8421 55.4973 91.8105 53.1673C92.779 50.8374 94.1724 49.0491 95.9906 47.8024C97.8091 46.5711 99.9684 45.9368 102.469 45.8994C104.737 45.8655 106.68 46.2378 108.297 47.0163C109.93 47.81 111.182 48.9412 112.053 50.4101C112.915 51.8395 113.373 53.5308 113.424 55.484C113.427 55.5691 113.503 55.6333 113.587 55.6196C113.758 55.5918 113.735 55.34 113.563 55.3426L104.074 55.4845C103.612 55.4915 103.243 55.8716 103.25 56.3336L103.332 61.8021C103.342 62.4879 103.906 63.0354 104.592 63.0252L121.948 62.7655C122.634 62.7553 123.181 62.191 123.171 61.5052L123.1 56.7744C123.038 52.6075 122.104 49.0402 120.3 46.0726C118.496 43.1203 116.039 40.8571 112.928 39.2828C109.817 37.724 106.271 36.9743 102.289 37.0339C97.8447 37.1004 93.9549 38.1388 90.6199 40.1491C87.2851 42.1749 84.7035 45.0152 82.875 48.6701C81.0621 52.3402 80.1932 56.6754 80.2681 61.6757C80.3256 65.5185 80.9325 68.9363 82.0888 71.929C83.2607 74.937 84.8732 77.4754 86.9264 79.544C88.9796 81.6126 91.357 83.1747 94.0587 84.2303C96.7605 85.2859 99.6778 85.7902 102.811 85.7433C105.496 85.7032 107.99 85.2722 110.293 84.4505C112.597 83.6442 114.633 82.5178 116.402 81.0712C118.186 79.6243 119.635 77.9124 120.747 75.9353C121.635 74.3717 122.26 72.6844 122.624 70.8736C122.772 70.135 122.179 69.4769 121.425 69.4882L113.599 69.6053Z" fill="#BD3ED2"/>
<path d="M226.624 82.2428C225.938 82.2428 225.382 81.6868 225.382 81.001V39.0328C225.382 38.347 225.938 37.791 226.624 37.791H229.147C229.833 37.791 230.389 38.347 230.389 39.0328V44.3461C230.389 44.4978 230.512 44.6208 230.664 44.6208C230.777 44.6208 230.879 44.5508 230.921 44.4456C231.815 42.2329 233.268 40.4874 235.28 39.209C237.363 37.8778 239.862 37.2122 242.775 37.2122C245.843 37.2122 248.361 37.9357 250.329 39.3827C252.269 40.7768 253.731 42.6861 254.715 45.1104C254.758 45.2162 254.86 45.2864 254.975 45.2864C255.088 45.2864 255.189 45.2177 255.233 45.1136C256.242 42.7254 257.848 40.8247 260.052 39.4116C262.329 37.9453 265.088 37.2122 268.329 37.2122C272.458 37.2122 275.719 38.5145 278.111 41.1191C280.503 43.7044 281.699 47.4859 281.699 52.4635V81.001C281.699 81.6868 281.143 82.2428 280.458 82.2428H277.79C277.104 82.2428 276.548 81.6868 276.548 81.001V52.4635C276.548 48.9522 275.651 46.3186 273.857 44.5629C272.062 42.8072 269.699 41.9294 266.766 41.9294C263.371 41.9294 260.757 42.9712 258.924 45.0549C257.091 47.1386 256.174 49.7818 256.174 52.9845V81.001C256.174 81.6868 255.618 82.2428 254.933 82.2428H252.149C251.463 82.2428 250.907 81.6868 250.907 81.001V52.0005C250.907 48.9907 250.068 46.5598 248.39 44.7076C246.711 42.8555 244.348 41.9294 241.299 41.9294C239.254 41.9294 237.412 42.431 235.772 43.4343C234.151 44.4375 232.868 45.8363 231.923 47.6306C230.997 49.4056 230.534 51.4506 230.534 53.7658V81.001C230.534 81.6868 229.978 82.2428 229.292 82.2428H226.624Z" fill="#EEEEEE"/>
<path d="M360.365 83.7764C356.526 83.7764 353.13 82.8021 350.178 80.8535C347.246 78.9048 344.95 76.2134 343.29 72.7792C341.631 69.3257 340.802 65.3416 340.802 60.827C340.802 56.2738 341.631 52.2704 343.29 48.8169C344.95 45.3441 347.246 42.643 350.178 40.7137C353.13 38.7651 356.526 37.7908 360.365 37.7908C364.204 37.7908 367.59 38.7651 370.523 40.7137C373.456 42.6623 375.752 45.3634 377.411 48.8169C379.089 52.2704 379.929 56.2738 379.929 60.827C379.929 65.3416 379.099 69.3257 377.44 72.7792C375.78 76.2134 373.475 78.9048 370.523 80.8535C367.59 82.8021 364.204 83.7764 360.365 83.7764ZM360.365 79.0592C363.452 79.0592 366.066 78.2296 368.208 76.5703C370.349 74.9111 371.97 72.702 373.07 69.9431C374.189 67.1841 374.748 64.1454 374.748 60.827C374.748 57.5085 374.189 54.4602 373.07 51.682C371.97 48.9037 370.349 46.6753 368.208 44.9968C366.066 43.3183 363.452 42.479 360.365 42.479C357.297 42.479 354.683 43.3183 352.522 44.9968C350.381 46.6753 348.75 48.9037 347.631 51.682C346.532 54.4602 345.982 57.5085 345.982 60.827C345.982 64.1454 346.532 67.1841 347.631 69.9431C348.75 72.702 350.381 74.9111 352.522 76.5703C354.664 78.2296 357.278 79.0592 360.365 79.0592Z" fill="#EEEEEE"/>
</svg>
